<svg width="33" height="33" xmlns="http://www.w3.org/2000/svg" xmlns:xlink="http://www.w3.org/1999/xlink">

 <g>
  <title>background</title>
  <rect fill="none" id="canvas_background" height="35" width="35" y="-1" x="-1"/>
 </g>
 <g>
  <title>Layer 1</title>
  <use x="98.718201" y="0" id="use8" xlink:href="#path20"/>
  <ellipse id="ellipse24" fill="#cc092f" ry="16.235352" rx="16.236328" cy="16.49707" cx="16.519531"/>
  <path id="path26" fill="#ffffff" d="m30.8253,20.8832c-1.857,-0.74 -3.557,-0.492 -5.261,0.541c0,0 -0.621,0.379 -0.807,0.496c-0.794,0.498 -1.543,0.97 -2.263,0.97c-0.687,0 -1.363,-0.184 -1.649,-1.513c-0.446,-2.073 -1.534,-7.167 -2.009,-9.69c-0.279,-1.483 -0.432,-2.282 -0.591,-2.825c-0.28,-0.954 -0.792,-1.473 -1.519,-1.556c0,0 -0.114,-0.016 -0.207,-0.016c-0.092,0 -0.218,0.018 -0.218,0.018c-0.72,0.086 -1.229,0.605 -1.507,1.554c-0.159,0.543 -0.312,1.342 -0.591,2.825c-0.475,2.523 -1.563,7.617 -2.009,9.69c-0.286,1.329 -0.962,1.513 -1.649,1.513c-0.72,0 -1.469,-0.472 -2.263,-0.97c-0.186,-0.117 -0.808,-0.496 -0.808,-0.496c-1.703,-1.033 -3.404,-1.281 -5.26,-0.541c-0.401,0.16 -0.79596,0.33918 -1.17196,0.52018c0.257,0.806 0.57693,1.59925 0.94993,2.34425c0.411,-0.202 0.84203,-0.40243 1.28203,-0.53243c0.634,-0.187 1.284,-0.197 1.914,0.014c0.612,0.205 1.157,0.568 1.7,0.909c1.023,0.643 2.182,1.372 3.657,1.372c2.186,0 3.72,-1.305 4.21,-3.581c0.38,-1.764 1.222,-5.702 1.763,-8.418c0,0 1.386,6.654 1.765,8.418c0.49,2.276 2.025,3.581 4.211,3.581c1.475,0 2.634,-0.729 3.657,-1.372c0.543,-0.341 1.088,-0.704 1.7,-0.909c0.629,-0.211 1.28,-0.201 1.914,-0.014c0.44,0.13 0.87039,0.33065 1.28139,0.53265c0.374,-0.745 0.69309,-1.53862 0.95009,-2.34462c-0.376,-0.181 -0.77048,-0.36003 -1.17148,-0.52003"/>
 </g>
</svg>
